<svg width="45" height="24" viewBox="0 0 45 24" fill="none" xmlns="http://www.w3.org/2000/svg">
<path d="M43.3256 0.927734H1.65898C1.15898 0.927734 0.825684 1.19438 0.825684 1.59438V22.9277C0.825684 23.3277 1.15898 23.5944 1.65898 23.5944H43.3257C43.8257 23.5944 44.159 23.3277 44.159 22.9277V1.59445C44.159 1.19445 43.8256 0.927734 43.3256 0.927734ZM42.4923 22.2611H2.49229V2.26109H42.4923V22.2611Z" fill="#455A64" fill-opacity="0.5"/>
<path d="M26.1072 19.3081C26.149 19.3392 26.1936 19.3686 26.2423 19.3946C27.6592 19.9614 29.0763 20.2304 30.5635 20.2585C30.6506 20.2603 30.738 20.2613 30.8257 20.2613C30.9134 20.2613 31.0007 20.2604 31.0879 20.2585C32.5751 20.2304 33.9921 19.9614 35.4091 19.3946C35.4579 19.3686 35.5023 19.3393 35.5441 19.3081C38.6813 17.9542 40.8257 15.2984 40.8257 12.2612C40.8257 7.86123 36.3257 4.26123 30.8257 4.26123C25.3257 4.26123 20.8257 7.86123 20.8257 12.2612C20.8256 15.2984 22.97 17.9542 26.1072 19.3081ZM29.159 9.59459C29.159 8.86123 29.909 8.26123 30.8257 8.26123C31.7424 8.26123 32.4924 8.86123 32.4924 9.59459C32.4924 10.3279 31.7424 10.928 30.8257 10.928C29.909 10.928 29.159 10.3279 29.159 9.59459ZM30.8256 12.2612C32.6589 12.2612 34.1589 13.4612 34.1589 14.9279V18.3664C33.1365 18.7264 32.0093 18.9279 30.8256 18.9279C29.6419 18.9279 28.5146 18.7264 27.4923 18.3664V14.9279C27.4923 13.4612 28.9923 12.2612 30.8256 12.2612ZM30.8256 5.59459C35.4089 5.59459 39.1589 8.59459 39.1589 12.2612C39.1589 14.4302 37.8463 16.3655 35.8256 17.585V14.9279C35.8256 13.4268 34.7776 12.1125 33.2386 11.4285C33.8077 10.9496 34.1589 10.3034 34.1589 9.59451C34.1589 8.12787 32.6589 6.92787 30.8256 6.92787C28.9923 6.92787 27.4923 8.12787 27.4923 9.59451C27.4923 10.3035 27.8435 10.9496 28.4126 11.4285C26.8735 12.1124 25.8256 13.4268 25.8256 14.9279V17.585C23.8049 16.3655 22.4923 14.4302 22.4923 12.2612C22.4923 8.59459 26.2423 5.59459 30.8256 5.59459Z" fill="#455A64" fill-opacity="0.5"/>
<path d="M4.99248 10.261H5.82578C6.32578 10.261 6.65908 9.99438 6.65908 9.59438C6.65908 9.19438 6.32578 8.92773 5.82578 8.92773H4.99248C4.49248 8.92773 4.15918 9.19438 4.15918 9.59438C4.15918 9.99438 4.49248 10.261 4.99248 10.261Z" fill="#455A64" fill-opacity="0.5"/>
<path d="M13.3257 8.92773H9.15898C8.65898 8.92773 8.32568 9.19437 8.32568 9.59437C8.32568 9.99437 8.65898 10.261 9.15898 10.261H13.3257C13.8257 10.261 14.159 9.99437 14.159 9.59437C14.1591 9.19445 13.8257 8.92773 13.3257 8.92773Z" fill="#455A64" fill-opacity="0.5"/>
<path d="M16.659 10.261H18.3257C18.8257 10.261 19.159 9.99438 19.159 9.59438C19.159 9.19438 18.8257 8.92773 18.3257 8.92773H16.659C16.159 8.92773 15.8257 9.19438 15.8257 9.59438C15.8256 9.99438 16.159 10.261 16.659 10.261Z" fill="#455A64" fill-opacity="0.5"/>
<path d="M18.3258 12.9277H14.9925C14.4925 12.9277 14.1592 13.1944 14.1592 13.5944C14.1592 13.9944 14.4925 14.2611 14.9925 14.2611H18.3258C18.8258 14.2611 19.1591 13.9945 19.1591 13.5945C19.1591 13.1945 18.8258 12.9277 18.3258 12.9277Z" fill="#455A64" fill-opacity="0.5"/>
<path d="M4.99248 14.261H11.6592C12.1592 14.261 12.4925 13.9944 12.4925 13.5944C12.4925 13.1944 12.1592 12.9277 11.6592 12.9277H4.99248C4.49248 12.9277 4.15918 13.1944 4.15918 13.5944C4.15918 13.9944 4.49248 14.261 4.99248 14.261Z" fill="#455A64" fill-opacity="0.5"/>
<path d="M4.99248 18.261H9.15918C9.65918 18.261 9.99248 17.9944 9.99248 17.5944C9.99248 17.1944 9.65918 16.9277 9.15918 16.9277H4.99248C4.49248 16.9277 4.15918 17.1944 4.15918 17.5944C4.15918 17.9944 4.49248 18.261 4.99248 18.261Z" fill="#455A64" fill-opacity="0.5"/>
<path d="M18.3258 16.9277H12.4925C11.9925 16.9277 11.6592 17.1944 11.6592 17.5944C11.6592 17.9944 11.9925 18.261 12.4925 18.261H18.3258C18.8258 18.261 19.1591 17.9944 19.1591 17.5944C19.1591 17.1944 18.8258 16.9277 18.3258 16.9277Z" fill="#455A64" fill-opacity="0.5"/>
<path d="M8.32549 6.26102H14.9922C15.4922 6.26102 15.8255 5.99438 15.8255 5.59438C15.8255 5.19438 15.4922 4.92773 14.9922 4.92773H8.32549C7.82549 4.92773 7.49219 5.19438 7.49219 5.59438C7.49219 5.99438 7.82549 6.26102 8.32549 6.26102Z" fill="#455A64" fill-opacity="0.5"/>
</svg>
